<?xml version="1.0" encoding="utf-8"?>
<!-- Generator: Adobe Illustrator 27.5.0, SVG Export Plug-In . SVG Version: 6.00 Build 0)  -->
<svg version="1.1" id="Layer_1" xmlns="http://www.w3.org/2000/svg" xmlns:xlink="http://www.w3.org/1999/xlink" x="0px" y="0px"
	 viewBox="0 0 157.138 423.125" style="enable-background:new 0 0 157.138 423.125;" xml:space="preserve">
<g>
	<g>
		<path style="fill:#88320C;" d="M138.461,318.151c-4.15-10.501-11.639-20.473-21.68-29.59c-11.503-10.44-9.555-18.77-7.115-29.023
			c1.649-6.933,3.495-14.796,1.401-24.822c-1.833-8.81,5.133-8.339-0.813-12.327c-2.124-1.423-15.384-9.314-18.026-10.158
			c-4.382-1.394-9.553-1.951-15.39-1.846c-5.774-32.763-11.517-65.527-17.114-98.315c-2.256-16.033-4.475-32.069-6.651-48.112
			c0.967-2.744,2.71-4.415,2.738-4.44c0.043-0.042,0.066-0.061,0.109-0.103c0-0.054,0-0.079,0-0.135
			c0.002-0.081,0.055-1.838,0.139-4.619c1.019-0.199,1.98-0.39,3.323-0.66c0.775,1.882,2.107,2.901,3.475,2.619
			c1.858-0.381,2.988-3.043,2.588-6.05c-0.397-3.011-2.155-5.073-4.011-4.695c-1.366,0.275-2.361,1.757-2.614,3.846
			c-1.041,0.211-1.842,0.371-2.628,0.523c0.105-3.36,0.229-7.37,0.367-11.552c0.757-0.147,1.535-0.304,2.54-0.503
			c0.769,1.887,2.087,2.908,3.452,2.629c1.854-0.378,2.991-3.046,2.598-6.064c-0.391-3.021-2.136-5.083-3.991-4.71
			c-1.361,0.275-2.356,1.757-2.614,3.853c-0.702,0.14-1.286,0.253-1.841,0.363c0.126-3.853,0.26-7.687,0.389-11.14
			c0.362-0.076,0.723-0.147,1.152-0.231c0.761,1.897,2.08,2.928,3.442,2.648c1.849-0.373,2.99-3.051,2.609-6.084
			c-0.383-3.031-2.123-5.11-3.973-4.739c-1.358,0.277-2.359,1.767-2.621,3.868c-0.162,0.032-0.285,0.054-0.438,0.086
			c0.134-3.333,0.255-5.993,0.352-7.453c0.039-0.538-0.152-0.832-0.317-0.982c-0.204-0.187-0.635-0.371-1.404-0.165
			c-0.669,0.179-1.345,0.331-2.008,0.459c-8.31,1.615-13.773-1.119-16.272-2.879c-0.912-0.641-1.782-0.488-2.484,0.432
			c-1.573,2.067-6.161,7.036-14.962,8.497c-0.793,0.132-1.614,0.228-2.432,0.297c-0.562,0.049-0.939,0.248-1.146,0.582
			c-0.192,0.312-0.209,0.714-0.044,1.197c0.461,1.377,1.239,3.831,2.194,6.909c-0.241,0.037-0.454,0.074-0.723,0.115
			c-0.781-1.912-2.136-2.974-3.552-2.749c-1.919,0.309-3.132,2.933-2.747,5.964c0.382,3.033,2.193,5.168,4.114,4.859
			c1.414-0.226,2.449-1.684,2.723-3.77c0.552-0.088,1.028-0.167,1.481-0.241c1.001,3.257,2.107,6.872,3.214,10.514
			c-0.658,0.106-1.347,0.221-2.205,0.358c-0.78-1.912-2.138-2.972-3.551-2.746c-1.919,0.307-3.128,2.925-2.737,5.957
			c0.39,3.026,2.206,5.159,4.128,4.849c1.414-0.226,2.444-1.681,2.716-3.76c1.169-0.192,2.048-0.332,2.922-0.474
			c1.196,3.946,2.342,7.736,3.298,10.914c-0.89,0.145-1.783,0.294-2.976,0.488c-0.788-1.907-2.142-2.962-3.556-2.734
			c-1.919,0.309-3.118,2.916-2.723,5.942c0.395,3.023,2.212,5.154,4.13,4.845c1.414-0.228,2.444-1.681,2.711-3.757
			c1.496-0.246,2.533-0.415,3.676-0.606c0.79,2.628,1.29,4.29,1.314,4.368c0.014,0.052,0.023,0.074,0.041,0.128
			c0.049,0.022,0.076,0.039,0.125,0.064c0.022,0.007,0.944,0.427,2.033,1.342l17.406,149.382c0,0-11.007,2.705-13.836,3.851
			c-6.501,2.636-12.827,5.782-18.09,10.501c-8.773,7.861-12.762,18.267-11.703,31.024c0.888,10.693,4.926,17.174,8.489,22.873
			c5.268,8.428,9.47,15.069,1.35,31.416c-7.089,14.274-11.515,28.417-12.64,40.931c-1.327,14.696,1.826,26.891,9.405,35.686
			c11.317,13.13,29.568,23.064,46.713,23.307c7.646,0.106,13.936-4.967,21.25-6.955c26.567-6.516,49.015-25.617,58.126-51.401
			C143.572,343.302,143.334,330.481,138.461,318.151z M137.236,317.114c0.209,0.488,0.445,0.969,0.638,1.463
			c1.411,3.573,2.383,7.193,3.009,10.84C140.123,325.207,138.887,321.089,137.236,317.114z"/>
		<path style="fill:#4F1300;" d="M59.93,415.32L59.93,415.32l-0.251-0.003c-16.624-0.236-35.228-9.508-47.394-23.622
			c-7.752-8.997-10.989-21.234-9.623-36.369c1.122-12.479,5.524-26.743,12.732-41.255c7.869-15.842,4.04-21.97-1.263-30.452
			c-3.66-5.858-7.76-12.413-8.668-23.354c-1.079-12.982,2.96-23.678,12.002-31.781c5.825-5.22,12.87-8.44,18.357-10.666
			c2.443-0.991,10.589-3.053,13.179-3.698L31.73,65.91c-0.851-0.665-1.522-0.974-1.529-0.977c-0.241-0.111-0.562-0.388-0.639-0.638
			l-1.124-3.73l-2.242,0.371c-0.458,2.137-1.706,3.595-3.355,3.86c-2.476,0.41-4.721-2.093-5.183-5.628
			c-0.467-3.573,1.032-6.567,3.485-6.963c1.679-0.26,3.243,0.744,4.235,2.624l1.266-0.206c-0.827-2.749-1.775-5.885-2.766-9.152
			l-1.49,0.24c-0.463,2.145-1.712,3.6-3.361,3.865c-2.457,0.415-4.722-2.101-5.178-5.637c-0.463-3.583,1.043-6.582,3.5-6.975
			c1.664-0.275,3.247,0.749,4.233,2.636l0.488-0.079c-0.918-3.018-1.83-6-2.674-8.749l-0.053,0.007
			c-0.465,2.15-1.718,3.61-3.368,3.875c-2.47,0.407-4.719-2.106-5.165-5.65c-0.455-3.583,1.053-6.584,3.51-6.98
			c0.909-0.145,1.785,0.088,2.555,0.631c-0.498-1.58-0.909-2.857-1.196-3.713c-0.318-0.933-0.102-1.586,0.135-1.968
			c0.256-0.412,0.783-0.92,1.845-1.011c0.794-0.066,1.589-0.157,2.359-0.289c8.451-1.399,12.876-6.165,14.387-8.148
			c0.745-0.977,1.567-1.181,2.127-1.181c0.542,0,1.085,0.189,1.61,0.557c1.699,1.195,5.364,3.203,10.813,3.203
			c1.538,0,3.139-0.16,4.76-0.476c0.642-0.123,1.296-0.27,1.945-0.444c1.081-0.292,1.912,0.056,2.254,0.37
			c0.259,0.236,0.682,0.776,0.615,1.723c-0.055,0.829-0.119,2.049-0.188,3.561c0.509-0.528,1.119-0.881,1.8-1.019
			c2.465-0.516,4.61,1.931,5.062,5.517c0.448,3.571-0.985,6.622-3.335,7.095c-1.446,0.297-2.929-0.496-3.906-2.074
			c-0.102,2.776-0.206,5.76-0.306,8.779l0.088-0.017c0.436-2.153,1.64-3.654,3.235-3.971c2.428-0.513,4.614,1.914,5.077,5.485
			c0.462,3.556-0.966,6.597-3.322,7.078c-1.608,0.334-3.178-0.636-4.16-2.486l-1.124,0.221l-0.308,9.674l0.878-0.174
			c0.432-2.15,1.636-3.647,3.234-3.968c2.448-0.496,4.629,1.91,5.097,5.47c0.471,3.544-0.951,6.582-3.31,7.066
			c-1.604,0.331-3.195-0.628-4.181-2.479l-1.911,0.378l-0.115,3.89c-0.007,0.243-0.11,0.611-0.287,0.775
			c-0.126,0.12-1.635,1.571-2.539,3.978c2.167,15.965,4.375,31.924,6.623,47.882c5.655,33.136,11.497,66.435,16.973,97.519
			c5.857-0.056,10.737,0.574,14.902,1.9c2.806,0.896,16.059,8.796,18.258,10.271c3.56,2.388,3.176,3.779,2.12,5.787
			c-0.726,1.382-1.72,3.269-0.92,7.112c2.146,10.283,0.258,18.218-1.409,25.219c-2.396,10.077-4.291,18.031,6.841,28.137
			c10.44,9.475,17.814,19.548,21.915,29.931c4.989,12.619,5.195,25.582,0.617,38.536c-8.965,25.371-31.485,45.292-58.771,51.985
			c-2.684,0.731-5.315,1.931-7.859,3.092C69.107,413.342,64.773,415.32,59.93,415.32z M31.194,63.382
			c0.442,0.233,1.178,0.67,1.989,1.352c0.179,0.15,0.293,0.363,0.32,0.596L50.909,214.71c0.054,0.457-0.242,0.884-0.69,0.994
			c-0.109,0.025-10.975,2.702-13.71,3.811c-5.35,2.167-12.211,5.301-17.822,10.332c-8.596,7.701-12.431,17.886-11.403,30.268
			c0.873,10.501,4.847,16.855,8.354,22.463c5.236,8.376,9.719,15.55,1.393,32.309c-7.106,14.308-11.446,28.348-12.548,40.604
			c-1.32,14.625,1.771,26.402,9.187,35.009c11.841,13.738,29.911,22.76,46.035,22.989l0.226,0.002l0,0
			c4.447,0,8.412-1.809,12.608-3.725c2.612-1.193,5.311-2.422,8.163-3.2c26.715-6.55,48.74-26.024,57.503-50.821
			c3.007-8.504,3.88-17.013,2.621-25.418c-0.41-0.025-0.766-0.327-0.843-0.749c-0.733-4.066-1.942-8.143-3.591-12.116
			c-0.169-0.407-0.022-0.866,0.329-1.104c-4.138-9.372-11.041-18.485-20.552-27.119c-11.932-10.83-9.828-19.673-7.391-29.912
			c1.621-6.815,3.459-14.541,1.396-24.424c-0.934-4.486,0.286-6.805,1.091-8.334c0.773-1.47,0.934-1.774-1.519-3.419
			c-2.429-1.629-15.363-9.272-17.794-10.047c-4.154-1.323-9.143-1.897-15.096-1.804c-0.547,0.039-0.84-0.314-0.917-0.753
			c-5.517-31.308-11.408-64.887-17.116-98.32c-2.261-16.063-4.48-32.101-6.656-48.144c-0.02-0.145-0.005-0.289,0.044-0.427
			c0.862-2.449,2.277-4.081,2.806-4.631l0.126-4.391c0.012-0.424,0.319-0.785,0.737-0.869l3.32-0.658
			c0.436-0.083,0.86,0.145,1.025,0.55c0.592,1.433,1.531,2.26,2.447,2.071c1.192-0.246,2.225-2.327,1.865-5.036
			c-0.352-2.67-1.757-4.15-2.924-3.922c-0.945,0.194-1.686,1.394-1.889,3.063c-0.047,0.393-0.34,0.709-0.725,0.785l-2.636,0.523
			c-0.268,0.059-0.555-0.017-0.767-0.201c-0.211-0.179-0.329-0.444-0.321-0.724l0.367-11.552c0.014-0.427,0.321-0.785,0.74-0.866
			l2.536-0.505c0.438-0.079,0.86,0.147,1.025,0.552c0.585,1.438,1.518,2.25,2.423,2.081c1.191-0.243,2.228-2.331,1.874-5.053
			c-0.346-2.673-1.737-4.155-2.902-3.932c-0.942,0.191-1.682,1.394-1.889,3.068c-0.048,0.39-0.341,0.707-0.726,0.785l-1.843,0.366
			c-0.275,0.056-0.557-0.022-0.769-0.201c-0.212-0.179-0.33-0.449-0.322-0.729c0.125-3.853,0.259-7.689,0.389-11.142
			c0.015-0.422,0.316-0.778,0.73-0.861l1.16-0.231c0.441-0.088,0.859,0.15,1.024,0.557c0.58,1.443,1.512,2.258,2.411,2.091
			c1.189-0.241,2.228-2.337,1.885-5.076c-0.34-2.687-1.729-4.177-2.886-3.956c-0.94,0.194-1.685,1.401-1.895,3.085
			c-0.048,0.388-0.339,0.702-0.721,0.781l-0.25,0.051c-0.276,0.052-0.657-0.005-0.869-0.186c-0.211-0.184-0.429-0.43-0.417-0.709
			c0.134-3.345,0.255-6.013,0.354-7.48c0.013-0.186-0.027-0.25-0.027-0.25c-0.275-0.015-0.399,0.01-0.543,0.052
			c-0.692,0.184-1.389,0.341-2.071,0.474c-1.734,0.339-3.453,0.505-5.107,0.505c-5.953,0-9.99-2.214-11.866-3.534
			c-0.495-0.348-0.824-0.292-1.23,0.238c-1.643,2.157-6.445,7.336-15.539,8.845c-0.816,0.135-1.663,0.236-2.505,0.307
			c-0.232,0.017-0.399,0.076-0.447,0.152c-0.028,0.044-0.035,0.184,0.044,0.42c0.464,1.387,1.244,3.848,2.201,6.931
			c0.08,0.255,0.044,0.527-0.096,0.756c-0.141,0.223-0.372,0.378-0.633,0.417l-0.723,0.118c-0.417,0.071-0.829-0.164-0.99-0.557
			c-0.605-1.483-1.582-2.339-2.562-2.192c-1.388,0.223-2.297,2.489-1.984,4.945c0.289,2.294,1.535,4.091,2.84,4.091
			c1.198-0.174,1.967-1.345,2.185-3.004c0.052-0.403,0.362-0.719,0.762-0.785l1.476-0.24c0.456-0.064,0.887,0.199,1.022,0.633
			c1.001,3.257,2.108,6.877,3.215,10.516c0.076,0.253,0.041,0.525-0.1,0.748c-0.138,0.226-0.369,0.378-0.628,0.42l-2.206,0.361
			c-0.422,0.066-0.832-0.164-0.991-0.557c-0.606-1.48-1.578-2.337-2.562-2.192c-1.386,0.221-2.291,2.484-1.974,4.938
			c0.295,2.29,1.547,4.084,2.852,4.084c1.196-0.172,1.963-1.34,2.178-2.996c0.053-0.4,0.362-0.719,0.76-0.783l2.92-0.474
			c0.445-0.064,0.89,0.199,1.023,0.638c1.196,3.946,2.343,7.738,3.299,10.916c0.076,0.25,0.041,0.525-0.099,0.746
			c-0.14,0.223-0.368,0.376-0.627,0.42l-2.976,0.488c-0.428,0.061-0.831-0.16-0.993-0.552c-0.61-1.48-1.593-2.326-2.568-2.184
			c-1.405,0.226-2.285,2.437-1.96,4.921c0.298,2.287,1.551,4.081,2.852,4.081c1.199-0.177,1.963-1.342,2.176-2.992
			c0.051-0.398,0.361-0.717,0.76-0.785l3.67-0.606c0.45-0.061,0.897,0.199,1.028,0.638L31.194,63.382z"/>
	</g>
	<path style="fill:#88320C;" d="M101.727,224.1c3.009,2.057,6.104,3.983,9.217,5.875c0.815-4.072,3.895-4.508-0.689-7.586
		c-2.124-1.423-15.384-9.314-18.026-10.158c-2.228-0.709-4.663-1.195-7.284-1.495C89.752,215.999,95.89,220.114,101.727,224.1z"/>
	<path style="fill:#88320C;" d="M18.236,309.938c8.446,4.857,17.55,9.083,26.564,12.762c0.87-6.288,1.431-12.776,1.231-19.172
		c-8.75-3.865-17.723-7.269-26.381-11.328C21.228,296.835,21.335,302.163,18.236,309.938z"/>
	<path style="fill:#88320C;" d="M33.324,259.936c-4.178-3.006-8.332-6.042-12.368-9.233c-3.92-3.105-7.854-6.192-11.767-9.304
		c-1.033,2.383-1.795,4.906-2.281,7.557c4.923,3.014,10.091,5.6,15.384,7.949c3.837,1.703,7.748,3.848,11.751,5.672
		C33.767,261.698,33.526,260.819,33.324,259.936z"/>
	<g>
		<g>
			<g>
				<path style="fill:#4F464B;" d="M24.77,25.376c-2.316,0.385-3.478,0.582-5.801,0.957c-0.605-1.828-1.8-3.038-3.023-2.837
					c-1.527,0.246-2.5,2.57-2.167,5.196c0.331,2.626,1.843,4.557,3.366,4.314c1.225-0.196,2.072-1.73,2.2-3.674
					c2.323-0.378,3.483-0.567,5.799-0.952C24.992,27.181,24.921,26.577,24.77,25.376z"/>
				<path style="fill:#352F32;" d="M17.23,33.665c-1.923,0.307-3.733-1.828-4.118-4.862c-0.38-3.031,0.828-5.655,2.752-5.964
					c1.414-0.226,2.766,0.837,3.546,2.749c2.378-0.388,3.566-0.579,5.938-0.977c0.213,1.725,0.324,2.584,0.54,4.304
					c-2.368,0.395-3.559,0.591-5.934,0.977C19.678,31.979,18.645,33.436,17.23,33.665z M16.029,24.152
					c-0.993,0.16-1.889,2.022-1.583,4.439c0.304,2.413,1.623,3.915,2.619,3.755c0.831-0.133,1.508-1.411,1.614-3.036
					c0.014-0.223,0.021-0.326,0.033-0.55c2.281-0.368,3.419-0.555,5.693-0.93c-0.083-0.675-0.131-1.011-0.215-1.689
					c-2.271,0.381-3.406,0.567-5.688,0.938c-0.066-0.206-0.1-0.309-0.168-0.515C17.826,25.031,16.86,24.02,16.029,24.152z"/>
			</g>
			<g>
				<path style="fill:#4F464B;" d="M27.798,40.313c-2.314,0.385-3.473,0.574-5.797,0.952c-0.608-1.826-1.806-3.028-3.028-2.83
					c-1.523,0.243-2.492,2.567-2.156,5.188c0.337,2.621,1.852,4.55,3.376,4.305c1.221-0.196,2.07-1.728,2.192-3.672
					c2.324-0.375,3.481-0.567,5.797-0.952C28.026,42.107,27.953,41.511,27.798,40.313z"/>
				<path style="fill:#352F32;" d="M20.279,48.586c-1.919,0.307-3.738-1.823-4.124-4.854c-0.39-3.028,0.817-5.647,2.738-5.954
					c1.412-0.226,2.767,0.834,3.552,2.746c2.376-0.385,3.564-0.582,5.929-0.977c0.222,1.723,0.329,2.584,0.551,4.305
					c-2.367,0.395-3.552,0.587-5.928,0.972C22.725,46.902,21.695,48.358,20.279,48.586z M19.056,39.086
					c-0.993,0.157-1.885,2.02-1.573,4.432c0.309,2.413,1.633,3.91,2.626,3.75c0.831-0.13,1.507-1.401,1.609-3.028
					c0.015-0.219,0.017-0.326,0.031-0.545c2.281-0.368,3.418-0.557,5.69-0.935c-0.088-0.672-0.131-1.006-0.218-1.679
					c-2.269,0.375-3.405,0.559-5.685,0.93c-0.066-0.206-0.101-0.309-0.169-0.516C20.859,39.969,19.887,38.951,19.056,39.086z"/>
			</g>
			<g>
				<path style="fill:#4F464B;" d="M31.59,55.539c-2.308,0.39-3.468,0.577-5.789,0.955c-0.611-1.821-1.809-3.019-3.03-2.822
					c-1.524,0.248-2.489,2.567-2.145,5.186c0.342,2.616,1.861,4.54,3.384,4.295c1.22-0.196,2.064-1.73,2.183-3.669
					c2.322-0.378,3.476-0.572,5.791-0.962C31.825,57.325,31.747,56.734,31.59,55.539z"/>
				<path style="fill:#352F32;" d="M24.091,63.804c-1.918,0.309-3.734-1.821-4.129-4.845c-0.396-3.026,0.806-5.632,2.725-5.942
					c1.409-0.228,2.766,0.827,3.556,2.734c2.373-0.39,3.557-0.582,5.923-0.982c0.223,1.718,0.337,2.574,0.562,4.292
					c-2.364,0.4-3.552,0.594-5.923,0.984C26.537,62.123,25.506,63.576,24.091,63.804z M22.854,54.329
					c-0.99,0.162-1.879,2.01-1.565,4.42c0.314,2.408,1.643,3.907,2.636,3.748c0.828-0.135,1.5-1.409,1.599-3.034
					c0.012-0.218,0.02-0.324,0.033-0.545c2.276-0.37,3.411-0.557,5.68-0.94c-0.087-0.667-0.13-1.009-0.219-1.681
					c-2.266,0.38-3.404,0.567-5.68,0.94c-0.069-0.206-0.102-0.307-0.172-0.511C24.656,55.2,23.685,54.196,22.854,54.329z"/>
			</g>
			<g>
				<g>
					<path style="fill:#4F464B;" d="M54.058,20.152c2.261-0.437,3.388-0.663,5.632-1.107c0.119-1.958,0.939-3.524,2.112-3.762
						c1.469-0.294,2.921,1.593,3.249,4.217c0.331,2.623-0.585,4.994-2.052,5.291c-1.177,0.238-2.337-0.932-2.928-2.746
						c-2.248,0.446-3.376,0.665-5.637,1.099C54.284,21.946,54.21,21.352,54.058,20.152z"/>
					<path style="fill:#352F32;" d="M63.083,25.448c-1.362,0.277-2.679-0.751-3.443-2.648c-2.299,0.456-3.454,0.685-5.765,1.129
						c-0.217-1.723-0.326-2.587-0.541-4.312c2.314-0.444,3.466-0.67,5.766-1.124c0.261-2.103,1.257-3.591,2.618-3.865
						c1.849-0.373,3.591,1.706,3.971,4.737C66.073,22.397,64.933,25.075,63.083,25.448z M54.998,22.365
						c2.215-0.43,3.319-0.648,5.521-1.085c0.068,0.204,0.101,0.309,0.167,0.513c0.491,1.519,1.433,2.506,2.231,2.344
						c0.955-0.194,1.806-2.096,1.505-4.509c-0.304-2.412-1.583-3.88-2.54-3.688c-0.795,0.162-1.448,1.47-1.545,3.112
						c-0.012,0.219-0.017,0.326-0.031,0.545c-2.2,0.439-3.305,0.66-5.516,1.085C54.873,21.359,54.916,21.69,54.998,22.365z"/>
				</g>
				<g>
					<path style="fill:#4F464B;" d="M54.899,35.466c2.261-0.437,3.388-0.655,5.637-1.104c0.112-1.956,0.926-3.517,2.102-3.755
						c1.471-0.297,2.935,1.581,3.273,4.194c0.339,2.614-0.573,4.982-2.044,5.279c-1.176,0.241-2.347-0.925-2.943-2.732
						c-2.252,0.452-3.378,0.673-5.642,1.109C55.127,37.262,55.053,36.661,54.899,35.466z"/>
					<path style="fill:#352F32;" d="M63.947,40.728c-1.362,0.28-2.681-0.744-3.452-2.628c-2.302,0.461-3.457,0.685-5.773,1.129
						c-0.221-1.716-0.33-2.572-0.552-4.29c2.317-0.444,3.469-0.675,5.771-1.132c0.256-2.096,1.252-3.578,2.616-3.855
						c1.852-0.371,3.599,1.691,3.989,4.712C66.938,37.682,65.801,40.35,63.947,40.728z M55.844,37.675
						c2.219-0.43,3.323-0.645,5.528-1.085c0.066,0.204,0.099,0.302,0.167,0.505c0.497,1.514,1.442,2.491,2.239,2.329
						c0.96-0.196,1.807-2.089,1.497-4.489c-0.314-2.41-1.594-3.87-2.551-3.676c-0.798,0.162-1.448,1.463-1.543,3.1
						c-0.012,0.221-0.02,0.326-0.034,0.547c-2.202,0.439-3.303,0.663-5.522,1.09C55.712,36.671,55.758,37.002,55.844,37.675z"/>
				</g>
				<g>
					<path style="fill:#4F464B;" d="M55.162,51.295c2.266-0.437,3.4-0.663,5.655-1.117c0.107-1.944,0.924-3.5,2.102-3.738
						c1.476-0.302,2.942,1.568,3.29,4.175c0.342,2.604-0.567,4.96-2.043,5.262c-1.178,0.24-2.354-0.92-2.956-2.717
						c-2.254,0.449-3.385,0.67-5.657,1.112C55.396,53.08,55.32,52.488,55.162,51.295z"/>
					<path style="fill:#352F32;" d="M64.254,56.53c-1.368,0.282-2.697-0.736-3.473-2.618c-2.309,0.464-3.461,0.692-5.783,1.139
						c-0.226-1.711-0.34-2.57-0.566-4.285c2.321-0.444,3.478-0.67,5.785-1.134c0.253-2.088,1.249-3.571,2.616-3.846
						c1.854-0.376,3.609,1.684,4.009,4.695C67.242,53.487,66.111,56.147,64.254,56.53z M56.115,53.502
						c2.221-0.434,3.333-0.655,5.542-1.099c0.066,0.204,0.1,0.307,0.171,0.511c0.503,1.507,1.448,2.474,2.253,2.307
						c0.958-0.196,1.804-2.076,1.487-4.474c-0.317-2.396-1.606-3.848-2.568-3.654c-0.8,0.162-1.443,1.46-1.534,3.09
						c-0.014,0.221-0.023,0.326-0.033,0.547c-2.209,0.442-3.318,0.663-5.537,1.095C55.982,52.493,56.028,52.829,56.115,53.502z"/>
				</g>
			</g>
			<g>
				<g>
					<g>
						<g>
							<g>
								<path style="fill:#D68919;" d="M128.689,294.824c-19.473-17.302-1.157-29.693-5.785-53.985
									c-5.047-26.495-36.404-25.909-56.307-21.261c-22.37,5.223-50.387,18.595-47.746,46.559
									c2.451,25.948,23.686,27.114,9.804,54.456c-11.519,22.687-20.41,55.254-3.263,76.293
									c15.474,18.978,44.233,22.262,67.651,16.242c26.146-6.727,48.739-25.325,57.876-51.111
									C159.859,336.772,147.523,311.564,128.689,294.824z"/>
								<path style="fill:#8F4D14;" d="M71.488,416.778h-0.004c-20.026,0-36.647-6.859-46.8-19.312
									c-6.686-8.204-19.76-32.155,3.156-77.287c8.104-15.962,3.966-22.633-1.274-31.08c-3.574-5.765-7.628-12.296-8.628-22.875
									c-3.019-31.988,32.878-43.901,48.45-47.535c4.867-1.136,12.396-2.491,20.637-2.491c14.651,0,32.924,4.246,36.776,24.471
									c1.876,9.846,0.056,17.768-1.55,24.758c-2.392,10.421-4.283,18.652,7.045,28.716c17.147,15.238,32.057,41.15,22.484,68.18
									c-8.944,25.244-30.817,44.568-58.51,51.69C86.137,415.846,78.808,416.778,71.488,416.778z M87.025,218.025
									c-8.067,0-15.449,1.33-20.22,2.444c-15.106,3.524-49.931,15.027-47.044,45.582c0.957,10.151,4.89,16.49,8.359,22.085
									c5.323,8.58,9.92,15.992,1.351,32.871C7.04,365.184,19.642,388.383,26.1,396.31c9.8,12.018,25.917,18.64,45.384,18.64h0.004
									c7.166,0,14.341-0.911,21.327-2.707c27.102-6.97,48.502-25.86,57.243-50.529c7.872-22.23-0.344-46.978-21.976-66.204
									c-12.137-10.786-10.04-19.918-7.612-30.491c1.566-6.815,3.34-14.541,1.537-24.007
									C118.389,222.014,100.986,218.025,87.025,218.025z"/>
							</g>
						</g>
					</g>
					<g>
						<path style="opacity:0.4;fill:#D68919;" d="M143.311,317.98c6.132,12.192,8.282,26.378,2.984,41.348
							c-8.654,24.446-30.206,41.871-54.956,48.176c-22.299,5.684-48.718,2.594-64.263-15.682
							c-4.615-5.426-7.301-12.097-8.474-19.238c0.809,8.668,3.599,16.76,9.026,23.197c15.623,18.532,42.25,21.808,64.782,16.033
							c25.074-6.425,46.709-24.25,55.38-49.03C153.525,346.392,150.605,331.002,143.311,317.98z"/>
					</g>
					<g>
						<g>
							<g style="opacity:0.4;">
								<path style="fill:#D68919;" d="M36.037,311.724c10.773,8.926,25.102,13.834,39.446,12.573
									c14.883-1.306,29.372-9.471,40.912-20.48c2.697-2.569,5.304-5.362,7.742-8.322c-15.046-16.799,0.476-28.078-3.718-51.025
									c-4.629-25.313-33.49-26.346-53.04-21.737c-21.763,5.132-47.052,18.779-44.411,45.427
									C25.134,290.046,39.889,293.899,36.037,311.724z"/>
							</g>
							<g>
								<g>
									<path style="fill:#3F2200;" d="M98.332,274.862c1.772,12.197-6.929,25.246-19.632,28.343
										c-12.7,3.097-24.556-4.921-26.275-17.283c-1.718-12.369,7.318-24.326,19.968-27.263
										C85.043,255.719,96.561,262.657,98.332,274.862z"/>
									<path style="fill:#752B05;" d="M78.745,303.525c-12.855,3.134-24.905-5.021-26.644-17.538
										c-1.738-12.524,7.442-24.664,20.247-27.637c12.807-2.972,24.507,4.067,26.303,16.418
										C100.441,287.118,91.605,300.386,78.745,303.525z M72.436,258.969c-12.455,2.896-21.377,14.711-19.688,26.888
										c1.692,12.175,13.407,20.085,25.91,17.037c12.505-3.048,21.106-15.928,19.361-27.938
										C96.275,262.937,84.892,256.078,72.436,258.969z"/>
								</g>
								<linearGradient id="SVGID_1_" gradientUnits="userSpaceOnUse" x1="75.3879" y1="258.9776" x2="75.3879" y2="304.0932">
									<stop  offset="0" style="stop-color:#54463E"/>
									<stop  offset="0.464" style="stop-color:#584B44"/>
									<stop  offset="1" style="stop-color:#70655F"/>
								</linearGradient>
								<path style="opacity:0.4;fill:url(#SVGID_1_);" d="M72.393,258.66c-12.65,2.938-21.686,14.894-19.968,27.263
									c1.719,12.362,13.574,20.38,26.275,17.283c12.703-3.097,21.404-16.146,19.632-28.343
									C96.561,262.657,85.043,255.719,72.393,258.66z M79.953,301.723c-10.67,2.633-20.61-4.032-22.058-14.421
									c-1.447-10.394,6.116-20.52,16.752-23.038c10.634-2.523,20.341,3.352,21.828,13.628
									C97.961,288.166,90.624,299.09,79.953,301.723z"/>
							</g>
							<g>
								<path style="fill:#ED1C24;" d="M79.038,305.613c-6.807,1.664-13.612,0.493-19.13-3.178
									c-5.516-3.674-9.073-9.397-9.991-16.023c-0.919-6.631,0.907-13.371,5.103-19.023c4.199-5.655,10.252-9.559,17.028-11.13
									c6.777-1.566,13.461-0.626,18.87,2.695c5.404,3.318,8.894,8.651,9.846,15.182c0.947,6.528-0.757,13.493-4.842,19.503
									C91.833,299.652,85.844,303.947,79.038,305.613z M72.098,256.615c-6.674,1.548-12.645,5.402-16.783,10.975
									c-4.137,5.569-5.942,12.212-5.035,18.748c0.907,6.533,4.411,12.17,9.851,15.788c5.435,3.622,12.148,4.776,18.859,3.136
									c6.709-1.639,12.61-5.883,16.637-11.802c4.034-5.927,5.718-12.781,4.783-19.216c-0.938-6.44-4.383-11.699-9.71-14.973
									C85.372,255.997,78.78,255.067,72.098,256.615z M78.912,304.705c-6.551,1.6-13.113,0.481-18.426-3.056
									c-5.311-3.534-8.732-9.044-9.617-15.424c-0.886-6.386,0.871-12.875,4.911-18.32c4.04-5.451,9.872-9.218,16.399-10.73
									c6.526-1.514,12.966-0.604,18.173,2.599c5.211,3.208,8.58,8.346,9.494,14.639c0.914,6.29-0.735,12.988-4.675,18.77
									C91.23,298.962,85.467,303.103,78.912,304.705z M72.231,257.518c-6.432,1.492-12.179,5.205-16.162,10.575
									c-3.982,5.37-5.713,11.77-4.84,18.06c0.871,6.288,4.245,11.714,9.479,15.194c5.233,3.483,11.694,4.584,18.155,3.009
									c6.458-1.576,12.143-5.647,16.026-11.343c3.885-5.694,5.508-12.296,4.606-18.495c-0.902-6.199-4.216-11.279-9.353-14.438
									C85.01,256.92,78.661,256.026,72.231,257.518z"/>
							</g>
							
								<linearGradient id="SVGID_00000178920627327233795120000011327525508402236064_" gradientUnits="userSpaceOnUse" x1="71.0447" y1="215.9393" x2="71.0447" y2="269.8614">
								<stop  offset="0.0967" style="stop-color:#79652B"/>
								<stop  offset="0.7687" style="stop-color:#84723E"/>
								<stop  offset="0.7944" style="stop-color:#8C7B4B"/>
								<stop  offset="0.8414" style="stop-color:#A1936C"/>
								<stop  offset="0.9046" style="stop-color:#C3BBA2"/>
								<stop  offset="0.9807" style="stop-color:#F2F1EB"/>
								<stop  offset="1" style="stop-color:#FFFFFF"/>
							</linearGradient>
							<path style="opacity:0.8;fill:url(#SVGID_00000178920627327233795120000011327525508402236064_);" d="M54.013,221.128
								c0,0,15.428-4.773,25.048-5.497c3.612,17.854,5.423,26.775,9.015,44.625c-11.917,3.2-17.942,4.565-30.116,7.065
								C56.401,248.821,55.605,239.585,54.013,221.128z"/>
						</g>
					</g>
					<path style="opacity:0.5;fill:#D68919;" d="M116.186,345.722c-19.906,6.825-40.374,11.896-61.042,15.798
						c-0.772-5.849-1.155-8.771-1.934-14.617c20.642-3.885,41.089-8.916,60.995-15.655
						C115.003,337.029,115.401,339.925,116.186,345.722z"/>
					<g>
						<g>
							<g>
								<defs>
									<path id="SVGID_00000164506252599750085490000013272508642947222967_" d="M36.776,8.173
										c-1.943,2.55-7.245,8.062-17.626,8.938c-0.859,0.074-1.176,0.535-0.904,1.337C20.74,25.85,32.1,63.704,32.1,63.704
										s5.028,2.145,5.808,8.015c3.161-0.547,4.738-0.825,7.88-1.394c3.141-0.572,4.706-0.864,7.826-1.46
										c-0.785-5.855,3.39-9.665,3.39-9.665s1.165-40.329,1.699-48.075c0.058-0.812-0.486-1.072-1.355-0.839
										c-9.72,2.608-16.069-0.732-18.531-2.464C38.042,7.272,37.373,7.385,36.776,8.173z"/>
								</defs>
								<use xlink:href="#SVGID_00000164506252599750085490000013272508642947222967_"  style="overflow:visible;fill:#D68919;"/>
								<clipPath id="SVGID_00000103261681718826397330000017733919800558265250_">
									<use xlink:href="#SVGID_00000164506252599750085490000013272508642947222967_"  style="overflow:visible;"/>
								</clipPath>
							</g>
						</g>
						<g>
							<g>
								<defs>
									<path id="SVGID_00000026128140393360598010000016134683264116909201_" d="M36.776,8.173
										c-1.943,2.55-7.245,8.062-17.626,8.938c-0.859,0.074-1.176,0.535-0.904,1.337C20.74,25.85,32.1,63.704,32.1,63.704
										s5.028,2.145,5.808,8.015c3.161-0.547,4.738-0.825,7.88-1.394c3.141-0.572,4.706-0.864,7.826-1.46
										c-0.785-5.855,3.39-9.665,3.39-9.665s1.165-40.329,1.699-48.075c0.058-0.812-0.486-1.072-1.355-0.839
										c-9.72,2.608-16.069-0.732-18.531-2.464C38.042,7.272,37.373,7.385,36.776,8.173z"/>
								</defs>
								<defs>
									<path id="SVGID_00000075134639856882901060000012264303361974491317_" d="M53.97,69.123
										c-6.489,1.239-9.758,1.831-16.335,2.967c-0.017-0.125-0.026-0.181-0.041-0.309c-0.752-5.635-5.585-7.763-5.633-7.782
										c-0.053-0.02-0.076-0.039-0.129-0.061c-0.016-0.054-0.023-0.076-0.043-0.128c-0.112-0.38-11.389-37.93-13.85-45.245
										c-0.161-0.484-0.145-0.888,0.048-1.2c0.207-0.331,0.581-0.53,1.145-0.579c0.819-0.071,1.641-0.164,2.431-0.297
										c8.803-1.46,13.392-6.432,14.964-8.496c0.702-0.923,1.571-1.073,2.483-0.43c2.497,1.757,7.964,4.491,16.276,2.876
										c0.658-0.128,1.336-0.28,2.005-0.459c0.766-0.206,1.199-0.022,1.404,0.165c0.167,0.15,0.352,0.444,0.319,0.982
										C58.5,18.758,57.33,58.79,57.32,59.19c-0.005,0.054,0,0.081-0.003,0.135c-0.043,0.042-0.064,0.061-0.107,0.103
										c-0.043,0.035-4.036,3.772-3.281,9.38C53.944,68.934,53.954,68.995,53.97,69.123z M38.18,71.358
										c6.073-1.055,9.094-1.6,15.091-2.744c-0.569-5.325,2.766-8.894,3.431-9.544c0.066-2.604,1.176-40.511,1.69-47.948
										c0.017-0.228-0.023-0.395-0.121-0.486c-0.145-0.132-0.464-0.147-0.859-0.042c-0.681,0.186-1.372,0.343-2.048,0.474
										c-8.527,1.656-14.159-1.168-16.733-2.982c-0.646-0.454-1.117-0.368-1.609,0.275c-2.015,2.638-6.665,7.314-15.376,8.754
										c-0.805,0.135-1.647,0.238-2.483,0.312c-0.316,0.029-0.546,0.115-0.631,0.255c-0.108,0.172-0.048,0.454,0.018,0.655
										c2.414,7.066,13.07,42.681,13.817,45.132C33.175,63.854,37.328,66.072,38.18,71.358z"/>
								</defs>
								<use xlink:href="#SVGID_00000026128140393360598010000016134683264116909201_"  style="overflow:visible;fill:#D68919;"/>
								<use xlink:href="#SVGID_00000075134639856882901060000012264303361974491317_"  style="overflow:visible;fill:#752B05;"/>
								<clipPath id="SVGID_00000177466093740607756130000013426303152639159720_">
									<use xlink:href="#SVGID_00000026128140393360598010000016134683264116909201_"  style="overflow:visible;"/>
								</clipPath>
								
									<clipPath id="SVGID_00000128444415338142019970000016763519056191509930_" style="clip-path:url(#SVGID_00000177466093740607756130000013426303152639159720_);">
									<use xlink:href="#SVGID_00000075134639856882901060000012264303361974491317_"  style="overflow:visible;"/>
								</clipPath>
							</g>
						</g>
						<g>
							<g>
								<g>
									<path style="fill:#82360D;" d="M37.83,71.749c6.323-1.097,9.468-1.657,15.707-2.849
										c10.304,62.121,21.318,124.113,32.257,186.123c-10.705,2.813-16.112,4.035-27.024,6.295
										C51.718,198.134,44.505,134.971,37.83,71.749z"/>
									<path style="fill:#3A0500;" d="M86.162,255.241c-10.963,2.891-16.497,4.143-27.678,6.452
										c-7.08-63.394-14.306-126.769-20.999-190.202c6.567-1.139,9.836-1.723,16.317-2.965c0.018,0.12,0.028,0.179,0.046,0.302
										C64.171,131.044,75.207,193.135,86.162,255.241z M59.057,260.937c10.646-2.211,15.921-3.409,26.368-6.14
										C74.524,192.983,63.552,131.191,53.278,69.267c-6.002,1.144-9.023,1.691-15.098,2.744
										C44.836,135.018,52.02,197.968,59.057,260.937z"/>
								</g>
							</g>
							<g>
								
									<linearGradient id="SVGID_00000023264889030035938940000002158948154164789637_" gradientUnits="userSpaceOnUse" x1="39.377" y1="85.9277" x2="56.1956" y2="85.9277">
									<stop  offset="0" style="stop-color:#CFBEB4"/>
									<stop  offset="0.9864" style="stop-color:#6B3817"/>
								</linearGradient>
								<path style="opacity:0.7;fill:url(#SVGID_00000023264889030035938940000002158948154164789637_);" d="M56.196,84.869
									c-6.627,1.291-9.969,1.904-16.687,3.083c-0.053-0.39-0.079-0.587-0.132-0.974c6.721-1.171,10.061-1.784,16.69-3.073
									C56.12,84.289,56.144,84.481,56.196,84.869z"/>
								
									<linearGradient id="SVGID_00000142867803539220118710000017670644574778706616_" gradientUnits="userSpaceOnUse" x1="40.7846" y1="99.1998" x2="58.4193" y2="99.1998">
									<stop  offset="0" style="stop-color:#CFBEB4"/>
									<stop  offset="0.9864" style="stop-color:#6B3817"/>
								</linearGradient>
								<path style="opacity:0.7;fill:url(#SVGID_00000142867803539220118710000017670644574778706616_);" d="M58.419,98.045
									c-6.951,1.382-10.45,2.03-17.5,3.271c-0.052-0.385-0.083-0.579-0.135-0.967c7.046-1.237,10.55-1.887,17.497-3.267
									C58.336,97.473,58.365,97.66,58.419,98.045z"/>
								
									<linearGradient id="SVGID_00000074422445593935081070000014770940161073753475_" gradientUnits="userSpaceOnUse" x1="42.2718" y1="112.6992" x2="60.6673" y2="112.6992">
									<stop  offset="0" style="stop-color:#CFBEB4"/>
									<stop  offset="0.9864" style="stop-color:#6B3817"/>
								</linearGradient>
								<path style="opacity:0.7;fill:url(#SVGID_00000074422445593935081070000014770940161073753475_);" d="M60.667,111.445
									c-7.252,1.47-10.909,2.157-18.262,3.468c-0.055-0.388-0.078-0.582-0.134-0.967c7.354-1.311,11.011-1.995,18.257-3.46
									C60.581,110.871,60.612,111.06,60.667,111.445z"/>
								
									<linearGradient id="SVGID_00000040570336689623111810000011202414029022809492_" gradientUnits="userSpaceOnUse" x1="43.5935" y1="124.9739" x2="62.773" y2="124.9739">
									<stop  offset="0" style="stop-color:#CFBEB4"/>
									<stop  offset="0.9864" style="stop-color:#6B3817"/>
								</linearGradient>
								<path style="opacity:0.7;fill:url(#SVGID_00000040570336689623111810000011202414029022809492_);" d="M62.773,123.62
									c-7.558,1.563-11.372,2.29-19.046,3.672c-0.053-0.386-0.081-0.579-0.134-0.965c7.674-1.382,11.483-2.111,19.045-3.672
									C62.693,123.039,62.719,123.235,62.773,123.62z"/>
								
									<linearGradient id="SVGID_00000121992349478077649940000006679869506345190054_" gradientUnits="userSpaceOnUse" x1="44.9174" y1="136.7527" x2="64.7706" y2="136.7527">
									<stop  offset="0" style="stop-color:#CFBEB4"/>
									<stop  offset="0.9864" style="stop-color:#6B3817"/>
								</linearGradient>
								<path style="opacity:0.7;fill:url(#SVGID_00000121992349478077649940000006679869506345190054_);" d="M64.771,135.3
									c-7.827,1.652-11.769,2.415-19.721,3.865c-0.053-0.386-0.081-0.577-0.133-0.962c7.945-1.448,11.893-2.211,19.716-3.863
									C64.69,134.723,64.716,134.917,64.771,135.3z"/>
								
									<linearGradient id="SVGID_00000163751740030390570870000014664969242716946320_" gradientUnits="userSpaceOnUse" x1="46.1838" y1="147.821" x2="66.6469" y2="147.821">
									<stop  offset="0" style="stop-color:#CFBEB4"/>
									<stop  offset="0.9864" style="stop-color:#6B3817"/>
								</linearGradient>
								<path style="opacity:0.7;fill:url(#SVGID_00000163751740030390570870000014664969242716946320_);" d="M66.647,146.275
									c-8.066,1.738-12.133,2.538-20.33,4.047c-0.052-0.385-0.081-0.577-0.133-0.959c8.193-1.509,12.26-2.307,20.324-4.042
									C66.566,145.701,66.592,145.892,66.647,146.275z"/>
								
									<linearGradient id="SVGID_00000013885601320255950660000007293717604117746345_" gradientUnits="userSpaceOnUse" x1="47.3521" y1="158.39" x2="68.485" y2="158.39">
									<stop  offset="0" style="stop-color:#CFBEB4"/>
									<stop  offset="0.9864" style="stop-color:#6B3817"/>
								</linearGradient>
								<path style="opacity:0.7;fill:url(#SVGID_00000013885601320255950660000007293717604117746345_);" d="M68.485,156.747
									c-8.328,1.828-12.532,2.665-20.997,4.243c-0.056-0.385-0.081-0.579-0.136-0.964c8.466-1.576,12.662-2.41,20.994-4.236
									C68.399,156.17,68.43,156.364,68.485,156.747z"/>
								
									<linearGradient id="SVGID_00000161598603708529889670000005872400630401994656_" gradientUnits="userSpaceOnUse" x1="48.4637" y1="168.3406" x2="70.2276" y2="168.3406">
									<stop  offset="0" style="stop-color:#CFBEB4"/>
									<stop  offset="0.9864" style="stop-color:#6B3817"/>
								</linearGradient>
								<path style="opacity:0.7;fill:url(#SVGID_00000161598603708529889670000005872400630401994656_);" d="M70.228,166.601
									c-8.577,1.919-12.908,2.793-21.63,4.437c-0.055-0.385-0.081-0.579-0.134-0.965c8.717-1.644,13.048-2.513,21.625-4.43
									C70.147,166.029,70.172,166.218,70.228,166.601z"/>
								
									<linearGradient id="SVGID_00000080172457273305022060000017875818071832319127_" gradientUnits="userSpaceOnUse" x1="49.5707" y1="178.0701" x2="71.9122" y2="178.0701">
									<stop  offset="0" style="stop-color:#CFBEB4"/>
									<stop  offset="0.9864" style="stop-color:#6B3817"/>
								</linearGradient>
								<path style="opacity:0.7;fill:url(#SVGID_00000080172457273305022060000017875818071832319127_);" d="M71.912,176.238
									c-8.803,2.008-13.25,2.911-22.201,4.619c-0.058-0.385-0.086-0.577-0.141-0.962c8.954-1.706,13.396-2.609,22.199-4.611
									C71.826,175.664,71.856,175.858,71.912,176.238z"/>
								
									<linearGradient id="SVGID_00000000915892604157146570000007099938725554861187_" gradientUnits="userSpaceOnUse" x1="50.5731" y1="187.0132" x2="73.4842" y2="187.0132">
									<stop  offset="0" style="stop-color:#CFBEB4"/>
									<stop  offset="0.9864" style="stop-color:#6B3817"/>
								</linearGradient>
								<path style="opacity:0.7;fill:url(#SVGID_00000000915892604157146570000007099938725554861187_);" d="M73.484,185.088
									c-9.033,2.093-13.589,3.033-22.777,4.803c-0.053-0.385-0.081-0.577-0.134-0.962c9.186-1.767,13.744-2.705,22.772-4.793
									C73.403,184.518,73.429,184.708,73.484,185.088z"/>
								
									<linearGradient id="SVGID_00000172418193757579607320000015579469322283535022_" gradientUnits="userSpaceOnUse" x1="51.5585" y1="195.3685" x2="74.9102" y2="195.3685">
									<stop  offset="0" style="stop-color:#CFBEB4"/>
									<stop  offset="0.9864" style="stop-color:#6B3817"/>
								</linearGradient>
								<path style="opacity:0.7;fill:url(#SVGID_00000172418193757579607320000015579469322283535022_);" d="M74.91,193.371
									c-9.203,2.167-13.848,3.134-23.213,4.955c-0.058-0.388-0.086-0.577-0.139-0.96c9.363-1.816,14.012-2.793,23.213-4.955
									C74.827,192.794,74.855,192.99,74.91,193.371z"/>
								
									<linearGradient id="SVGID_00000023258265965477356930000008199756724372761475_" gradientUnits="userSpaceOnUse" x1="52.4776" y1="203.5141" x2="76.3446" y2="203.5141">
									<stop  offset="0" style="stop-color:#CFBEB4"/>
									<stop  offset="0.9864" style="stop-color:#6B3817"/>
								</linearGradient>
								<path style="opacity:0.7;fill:url(#SVGID_00000023258265965477356930000008199756724372761475_);" d="M76.345,201.426
									c-9.407,2.243-14.154,3.252-23.73,5.132c-0.054-0.385-0.082-0.582-0.137-0.967c9.575-1.873,14.321-2.879,23.725-5.119
									C76.26,200.851,76.288,201.043,76.345,201.426z"/>
								
									<linearGradient id="SVGID_00000096772629778655004420000004506098711606406834_" gradientUnits="userSpaceOnUse" x1="53.328" y1="211.0139" x2="77.6613" y2="211.0139">
									<stop  offset="0" style="stop-color:#CFBEB4"/>
									<stop  offset="0.9864" style="stop-color:#6B3817"/>
								</linearGradient>
								<path style="opacity:0.7;fill:url(#SVGID_00000096772629778655004420000004506098711606406834_);" d="M77.661,208.852
									c-9.589,2.321-14.433,3.357-24.193,5.284c-0.058-0.385-0.086-0.574-0.14-0.962c9.762-1.924,14.604-2.965,24.193-5.282
									C77.575,208.273,77.607,208.469,77.661,208.852z"/>
								
									<linearGradient id="SVGID_00000148660428048883320760000017225425731322809235_" gradientUnits="userSpaceOnUse" x1="54.1869" y1="218.5275" x2="78.9706" y2="218.5275">
									<stop  offset="0" style="stop-color:#CFBEB4"/>
									<stop  offset="0.9864" style="stop-color:#6B3817"/>
								</linearGradient>
								<path style="opacity:0.7;fill:url(#SVGID_00000148660428048883320760000017225425731322809235_);" d="M78.971,216.278
									c-9.768,2.398-14.702,3.468-24.649,5.448c-0.054-0.385-0.082-0.582-0.135-0.967c9.943-1.978,14.876-3.036,24.641-5.431
									C78.882,215.711,78.917,215.898,78.971,216.278z"/>
								
									<linearGradient id="SVGID_00000078765930035430422590000006561303599737114814_" gradientUnits="userSpaceOnUse" x1="54.9109" y1="224.8508" x2="80.0712" y2="224.8508">
									<stop  offset="0" style="stop-color:#CFBEB4"/>
									<stop  offset="0.9864" style="stop-color:#6B3817"/>
								</linearGradient>
								<path style="opacity:0.7;fill:url(#SVGID_00000078765930035430422590000006561303599737114814_);" d="M80.071,222.544
									c-9.916,2.461-14.924,3.549-25.023,5.573c-0.054-0.385-0.083-0.579-0.138-0.964c10.098-2.022,15.107-3.112,25.022-5.568
									C79.988,221.967,80.016,222.163,80.071,222.544z"/>
								
									<linearGradient id="SVGID_00000176732850033772961230000005632110041922037425_" gradientUnits="userSpaceOnUse" x1="55.6202" y1="231.1359" x2="81.1782" y2="231.1359">
									<stop  offset="0" style="stop-color:#CFBEB4"/>
									<stop  offset="0.9864" style="stop-color:#6B3817"/>
								</linearGradient>
								<path style="opacity:0.7;fill:url(#SVGID_00000176732850033772961230000005632110041922037425_);" d="M81.178,228.753
									c-10.075,2.528-15.16,3.647-25.42,5.718c-0.057-0.385-0.086-0.579-0.138-0.964c10.26-2.067,15.345-3.183,25.414-5.706
									C81.092,228.181,81.121,228.372,81.178,228.753z"/>
								
									<linearGradient id="SVGID_00000067924050386269375620000010035421073978070414_" gradientUnits="userSpaceOnUse" x1="56.3294" y1="237.5217" x2="82.3034" y2="237.5217">
									<stop  offset="0" style="stop-color:#CFBEB4"/>
									<stop  offset="0.9864" style="stop-color:#6B3817"/>
								</linearGradient>
								<path style="opacity:0.7;fill:url(#SVGID_00000067924050386269375620000010035421073978070414_);" d="M82.303,235.068
									c-10.239,2.599-15.405,3.743-25.837,5.866c-0.056-0.388-0.081-0.582-0.137-0.967c10.432-2.118,15.6-3.259,25.839-5.856
									C82.223,234.493,82.249,234.685,82.303,235.068z"/>
								
									<linearGradient id="SVGID_00000081649226796767924970000008055544237821075352_" gradientUnits="userSpaceOnUse" x1="56.9529" y1="242.9529" x2="83.2484" y2="242.9529">
									<stop  offset="0" style="stop-color:#CFBEB4"/>
									<stop  offset="0.9864" style="stop-color:#6B3817"/>
								</linearGradient>
								<path style="opacity:0.7;fill:url(#SVGID_00000081649226796767924970000008055544237821075352_);" d="M83.248,240.44
									c-10.364,2.655-15.599,3.824-26.162,5.978c-0.055-0.385-0.081-0.577-0.134-0.962c10.56-2.155,15.795-3.318,26.158-5.969
									C83.167,239.868,83.192,240.059,83.248,240.44z"/>
								
									<linearGradient id="SVGID_00000166637732650380456950000004723648443645843643_" gradientUnits="userSpaceOnUse" x1="57.5749" y1="248.4588" x2="84.2053" y2="248.4588">
									<stop  offset="0" style="stop-color:#CFBEB4"/>
									<stop  offset="0.9864" style="stop-color:#6B3817"/>
								</linearGradient>
								<path style="opacity:0.7;fill:url(#SVGID_00000166637732650380456950000004723648443645843643_);" d="M84.205,245.888
									c-10.495,2.714-15.798,3.905-26.495,6.098c-0.055-0.385-0.081-0.574-0.135-0.962c10.695-2.194,15.999-3.382,26.493-6.094
									C84.124,245.314,84.151,245.505,84.205,245.888z"/>
								
									<linearGradient id="SVGID_00000156556772556636969890000015647885585217054126_" gradientUnits="userSpaceOnUse" x1="58.0192" y1="253.3683" x2="85.1674" y2="253.3683">
									<stop  offset="0" style="stop-color:#CFBEB4"/>
									<stop  offset="0.9864" style="stop-color:#6B3817"/>
								</linearGradient>
								<path style="opacity:0.7;fill:url(#SVGID_00000156556772556636969890000015647885585217054126_);" d="M85.167,250.716
									c-10.698,2.793-16.104,4.01-27.015,6.255c-0.053-0.385-0.076-0.572-0.134-0.957c10.908-2.246,16.312-3.458,27.011-6.249
									C85.086,250.146,85.112,250.333,85.167,250.716z"/>
							</g>
							<g>
								<path style="fill:#FFCB92;" d="M55.596,131.768c0.105,0.758-0.428,1.492-1.195,1.642c-0.766,0.15-1.477-0.346-1.586-1.102
									c-0.104-0.758,0.43-1.492,1.195-1.642C54.78,130.519,55.486,131.012,55.596,131.768z"/>
								<path style="fill:#FFCB92;" d="M62.975,183.363c0.11,0.753-0.428,1.497-1.199,1.659c-0.772,0.16-1.486-0.321-1.595-1.075
									c-0.109-0.758,0.429-1.495,1.2-1.656C62.152,182.131,62.866,182.609,62.975,183.363z"/>
								<path style="fill:#FFCB92;" d="M68.625,222.453c0.109,0.754-0.426,1.504-1.202,1.674c-0.773,0.172-1.492-0.3-1.601-1.055
									c-0.108-0.756,0.436-1.499,1.209-1.671C67.804,221.229,68.516,221.7,68.625,222.453z"/>
								<path style="fill:#FFCB92;" d="M64.537,153.103c0.109,0.756-0.423,1.502-1.19,1.661c-0.762,0.16-1.476-0.321-1.583-1.077
									c-0.107-0.756,0.426-1.5,1.191-1.657C63.719,151.868,64.428,152.351,64.537,153.103z"/>
								<path style="fill:#FFCB92;" d="M53.032,155.436c0.107,0.758-0.428,1.492-1.203,1.642c-0.77,0.147-1.487-0.349-1.595-1.107
									c-0.107-0.756,0.434-1.485,1.205-1.632C52.216,154.19,52.925,154.681,53.032,155.436z"/>
								<path style="fill:#FFCB92;" d="M71.236,199.332c0.109,0.753-0.424,1.51-1.195,1.684c-0.766,0.172-1.485-0.302-1.595-1.053
									c-0.109-0.756,0.434-1.507,1.2-1.681C70.415,198.107,71.127,198.579,71.236,199.332z"/>
								<path style="fill:#FFCB92;" d="M59.677,201.84c0.106,0.759-0.432,1.5-1.21,1.659c-0.773,0.159-1.495-0.327-1.605-1.08
									c-0.107-0.756,0.438-1.492,1.21-1.652C58.852,200.608,59.567,201.087,59.677,201.84z"/>
							</g>
							<path style="fill:#B1B3B6;" d="M85.041,251.444c-10.703,2.79-16.109,4.01-27.022,6.253c-0.175,0.037-0.34-0.073-0.366-0.248
								c-0.022-0.169,0.099-0.334,0.28-0.37c10.909-2.246,16.312-3.46,27.016-6.248c0.175-0.047,0.335,0.056,0.361,0.228
								C85.334,251.228,85.215,251.4,85.041,251.444z"/>
							<path style="fill:#B1B3B6;" d="M83.944,246.651c-10.393,2.682-15.643,3.858-26.236,6.033
								c-0.178,0.037-0.345-0.076-0.369-0.243c-0.023-0.174,0.105-0.346,0.281-0.385c10.593-2.172,15.843-3.343,26.239-6.025
								c0.172-0.044,0.336,0.061,0.362,0.231C84.243,246.428,84.119,246.605,83.944,246.651z"/>
							<path style="fill:#B1B3B6;" d="M82.997,241.154c-10.277,2.628-15.466,3.784-25.937,5.922c-0.178,0.037-0.34-0.078-0.363-0.25
								c-0.024-0.172,0.1-0.334,0.276-0.373c10.47-2.135,15.659-3.289,25.933-5.915c0.177-0.047,0.334,0.054,0.36,0.226
								C83.291,240.933,83.17,241.107,82.997,241.154z"/>
							<path style="fill:#B1B3B6;" d="M81.92,236.349c-9.982,2.525-15.023,3.642-25.191,5.713c-0.177,0.034-0.339-0.079-0.362-0.248
								c-0.023-0.169,0.096-0.336,0.271-0.371c10.168-2.069,15.207-3.188,25.188-5.711c0.174-0.042,0.336,0.062,0.362,0.231
								C82.215,236.133,82.095,236.305,81.92,236.349z"/>
							<path style="fill:#B1B3B6;" d="M80.634,229.668c-9.738,2.432-14.654,3.512-24.568,5.519c-0.178,0.034-0.34-0.076-0.363-0.248
								c-0.027-0.172,0.094-0.341,0.271-0.375c9.915-2.007,14.831-3.078,24.57-5.51c0.17-0.044,0.333,0.057,0.357,0.226
								C80.925,229.45,80.809,229.624,80.634,229.668z"/>
							<path style="fill:#B1B3B6;" d="M79.361,223.405c-9.457,2.331-14.233,3.374-23.855,5.313
								c-0.179,0.032-0.344-0.074-0.367-0.245c-0.025-0.172,0.099-0.341,0.276-0.376c9.624-1.934,14.397-2.977,23.853-5.308
								c0.175-0.042,0.337,0.064,0.362,0.233C79.654,223.194,79.535,223.361,79.361,223.405z"/>
							<path style="fill:#B1B3B6;" d="M78.317,217.179c-9.35,2.28-14.065,3.304-23.575,5.205c-0.179,0.034-0.342-0.078-0.369-0.248
								c-0.023-0.172,0.101-0.339,0.281-0.373c9.507-1.902,14.227-2.918,23.57-5.196c0.174-0.044,0.336,0.059,0.36,0.231
								C78.606,216.968,78.487,217.137,78.317,217.179z"/>
							<path style="fill:#B1B3B6;" d="M77.535,209.566c-9.503,2.3-14.302,3.33-23.976,5.245c-0.177,0.035-0.339-0.076-0.362-0.25
								c-0.025-0.172,0.094-0.336,0.274-0.368c9.672-1.912,14.474-2.945,23.98-5.242c0.171-0.042,0.33,0.066,0.355,0.236
								C77.831,209.357,77.709,209.524,77.535,209.566z"/>
							<path style="fill:#B1B3B6;" d="M76.44,202.088c-9.494,2.273-14.288,3.286-23.953,5.178c-0.179,0.035-0.341-0.076-0.364-0.245
								c-0.026-0.174,0.097-0.336,0.274-0.368c9.664-1.895,14.46-2.908,23.955-5.173c0.174-0.044,0.331,0.059,0.357,0.231
								C76.736,201.877,76.612,202.049,76.44,202.088z"/>
							<path style="fill:#B1B3B6;" d="M74.799,194.085c-9.124,2.145-13.724,3.107-23.008,4.911c-0.176,0.037-0.34-0.076-0.367-0.248
								c-0.023-0.174,0.1-0.339,0.278-0.375c9.283-1.801,13.886-2.763,23.007-4.906c0.173-0.042,0.335,0.059,0.36,0.231
								C75.095,193.867,74.974,194.046,74.799,194.085z"/>
							<path style="fill:#B1B3B6;" d="M73.017,185.765c-8.705,2.008-13.098,2.913-21.95,4.624c-0.174,0.032-0.341-0.079-0.364-0.253
								c-0.025-0.169,0.099-0.339,0.276-0.373c8.851-1.703,13.245-2.616,21.952-4.619c0.173-0.042,0.335,0.066,0.358,0.233
								C73.312,185.549,73.191,185.723,73.017,185.765z"/>
							<path style="fill:#B1B3B6;" d="M71.737,176.957c-8.697,1.978-13.089,2.881-21.931,4.565
								c-0.175,0.034-0.342-0.074-0.366-0.243c-0.025-0.172,0.099-0.343,0.276-0.378c8.841-1.686,13.233-2.579,21.93-4.555
								c0.173-0.039,0.332,0.069,0.359,0.241C72.031,176.753,71.91,176.915,71.737,176.957z"/>
							<path style="fill:#B1B3B6;" d="M70.018,167.337c-8.57,1.914-12.888,2.785-21.602,4.425c-0.175,0.034-0.34-0.084-0.363-0.253
								c-0.027-0.169,0.102-0.334,0.276-0.368c8.71-1.637,13.035-2.508,21.603-4.42c0.172-0.042,0.334,0.064,0.357,0.233
								C70.315,167.121,70.19,167.298,70.018,167.337z"/>
							<path style="fill:#B1B3B6;" d="M68.584,157.412c-8.33,1.831-12.533,2.67-20.999,4.251c-0.173,0.029-0.335-0.083-0.359-0.258
								c-0.023-0.169,0.096-0.331,0.271-0.366c8.465-1.578,12.667-2.417,20.997-4.246c0.172-0.039,0.331,0.069,0.357,0.236
								C68.875,157.201,68.756,157.375,68.584,157.412z"/>
							<path style="fill:#B1B3B6;" d="M66.741,146.938c-8.079,1.743-12.159,2.547-20.367,4.062
								c-0.177,0.035-0.336-0.071-0.362-0.245c-0.023-0.172,0.099-0.339,0.278-0.371c8.208-1.512,12.286-2.314,20.366-4.052
								c0.171-0.039,0.332,0.066,0.357,0.236C67.037,146.739,66.915,146.903,66.741,146.938z"/>
							<path style="fill:#B1B3B6;" d="M64.842,135.975c-7.818,1.652-11.759,2.417-19.696,3.865
								c-0.177,0.032-0.339-0.083-0.364-0.255c-0.023-0.172,0.099-0.339,0.276-0.373c7.937-1.443,11.879-2.201,19.695-3.853
								c0.171-0.035,0.333,0.066,0.357,0.236C65.133,135.766,65.014,135.938,64.842,135.975z"/>
							<path style="fill:#B1B3B6;" d="M62.904,124.526c-7.527,1.558-11.321,2.285-18.958,3.662
								c-0.177,0.032-0.337-0.084-0.362-0.258c-0.023-0.172,0.098-0.334,0.271-0.366c7.642-1.374,11.434-2.104,18.958-3.664
								c0.174-0.032,0.334,0.076,0.357,0.248C63.195,124.322,63.076,124.489,62.904,124.526z"/>
							<path style="fill:#B1B3B6;" d="M60.757,112.118c-7.246,1.47-10.896,2.157-18.247,3.468c-0.175,0.032-0.335-0.086-0.36-0.258
								c-0.023-0.172,0.101-0.331,0.274-0.363c7.349-1.311,11.001-1.995,18.247-3.465c0.172-0.034,0.334,0.076,0.357,0.248
								C61.052,111.916,60.929,112.083,60.757,112.118z"/>
						</g>
					</g>
				</g>
				<path style="fill:#231F20;" d="M101.02,269.178c0,0,3.946,10.78-0.928,20.212c-4.875,9.432-8.925,11.82-12.015,12.909
					s-6.863,9.577-2.621,22.193c4.242,12.616,30.947,4.322,30.73-19.433C115.969,281.305,101.436,256.067,101.02,269.178z"/>
			</g>
			<g>
				<path style="fill:#FFFFFF;" d="M76.397,349.506c-0.54,0.128-0.811,0.192-1.352,0.314
					c-13.212-97.608-27.802-195.02-40.798-292.657c0.529-0.091,0.792-0.133,1.319-0.226
					C48.557,154.548,63.175,251.928,76.397,349.506z"/>
				<path style="fill:#FFFFFF;" d="M79.697,348.721c-0.539,0.128-0.81,0.194-1.347,0.319
					C65.186,251.037,50.545,153.242,37.618,55.208c-2.804-5.434-4.208-8.163-7.008-13.616c0.476-0.26,0.714-0.383,1.188-0.64
					c2.844,5.578,4.269,8.361,7.118,13.918C51.847,152.914,66.513,250.713,79.697,348.721z"/>
				<path style="fill:#FFFFFF;" d="M82.38,348.068C68.891,249.908,53.87,151.971,40.661,53.772
					c-5.383-10.877-8.073-16.355-13.429-27.315c0.479-0.25,0.722-0.373,1.2-0.623c5.397,11.078,8.101,16.605,13.519,27.597
					c13.227,98.2,28.267,196.141,41.77,294.302C83.187,347.869,82.916,347.933,82.38,348.068z"/>
				<path style="fill:#FFFFFF;" d="M94.368,344.939c-0.53,0.147-0.798,0.221-1.33,0.366
					C79.745,248.146,64.833,151.213,51.799,54.017c0.519-0.098,0.777-0.147,1.292-0.248
					C66.138,150.928,81.068,247.817,94.368,344.939z"/>
				<path style="fill:#FFFFFF;" d="M89.572,346.23c-13.384-97.772-28.4-195.312-41.483-293.124
					c1.287-6.248,1.933-9.377,3.223-15.646c0.51,0.081,0.762,0.123,1.274,0.201c-1.269,6.18-1.904,9.264-3.171,15.422
					c13.115,97.699,28.098,195.128,41.49,292.787C90.371,346.012,90.105,346.09,89.572,346.23z"/>
				<path style="fill:#FFFFFF;" d="M86.065,347.146c-13.372-98.01-28.326-195.798-41.415-293.85
					c2.431-12.538,3.647-18.824,6.1-31.443c0.509,0.078,0.763,0.113,1.275,0.186c-2.427,12.538-3.634,18.782-6.043,31.234
					c13.101,97.944,28.057,195.623,41.422,293.528C86.867,346.942,86.601,347.01,86.065,347.146z"/>
			</g>
			<g>
				<g>
					<path style="fill:#A1A3A6;" d="M37.711,56.012c0.228,1.745-1.005,3.409-2.764,3.711c-1.757,0.299-3.376-0.869-3.604-2.616
						c-0.232-1.75,1.014-3.406,2.771-3.706C35.875,53.099,37.48,54.265,37.711,56.012z"/>
					<g>
						<g>
							<path style="fill:#7E6224;" d="M36.961,55.949c0.185,1.426-0.823,2.785-2.259,3.031c-1.433,0.246-2.75-0.719-2.938-2.145
								c-0.188-1.428,0.826-2.771,2.259-3.016C35.461,53.573,36.773,54.523,36.961,55.949z"/>
							<path style="fill:#5F2B2B;" d="M34.73,59.203c-1.558,0.265-2.992-0.78-3.197-2.329c-0.2-1.546,0.904-3.018,2.464-3.284
								c1.558-0.267,2.987,0.778,3.189,2.324C37.389,57.463,36.29,58.935,34.73,59.203z M34.056,54.046
								c-1.304,0.223-2.232,1.451-2.064,2.751c0.169,1.296,1.377,2.174,2.679,1.951c1.309-0.223,2.232-1.463,2.062-2.758
								C36.561,54.695,35.361,53.826,34.056,54.046z"/>
						</g>
						<g>
							<path style="fill:#5C5D60;" d="M35.983,56.12c0.116,0.884-0.517,1.725-1.413,1.877c-0.89,0.152-1.707-0.439-1.823-1.323
								c-0.114-0.891,0.512-1.735,1.405-1.887C35.044,54.635,35.867,55.232,35.983,56.12z"/>
							<path style="fill:#231F20;" d="M34.604,58.231c-1.016,0.174-1.956-0.511-2.087-1.522c-0.134-1.011,0.59-1.975,1.608-2.15
								c1.019-0.174,1.953,0.506,2.087,1.519C36.342,57.09,35.624,58.056,34.604,58.231z M34.183,55.021
								c-0.764,0.128-1.307,0.852-1.207,1.612c0.101,0.759,0.805,1.269,1.567,1.141c0.767-0.132,1.307-0.856,1.21-1.615
								C35.652,55.401,34.95,54.888,34.183,55.021z"/>
						</g>
						<g>
							<path style="fill:#6A6B6E;" d="M35.533,56.199c0.081,0.641-0.372,1.247-1.016,1.357c-0.645,0.108-1.236-0.321-1.321-0.959
								c-0.081-0.641,0.372-1.249,1.014-1.357C34.854,55.129,35.447,55.561,35.533,56.199z"/>
							<path style="fill:#FFFFFF;" d="M34.266,55.666c0.407-0.071,0.778,0.206,0.831,0.609c0.055,0.402-0.231,0.78-0.636,0.849
								c-0.405,0.069-0.781-0.199-0.833-0.601C33.575,56.12,33.861,55.735,34.266,55.666z"/>
						</g>
					</g>
				</g>
			</g>
			<g>
				<g>
					<path style="fill:#A1A3A6;" d="M33.375,41.098c0.225,1.75-1.014,3.409-2.776,3.706c-1.761,0.297-3.376-0.888-3.602-2.638
						c-0.223-1.747,1.028-3.407,2.788-3.701C31.547,38.168,33.152,39.346,33.375,41.098z"/>
					<g>
						<g>
							<path style="fill:#7E6224;" d="M32.626,41.032c0.184,1.431-0.831,2.778-2.269,3.019c-1.437,0.24-2.751-0.719-2.937-2.148
								c-0.182-1.433,0.834-2.778,2.273-3.019C31.129,38.642,32.443,39.599,32.626,41.032z"/>
							<path style="fill:#5F2B2B;" d="M30.386,44.279c-1.562,0.263-3-0.788-3.2-2.339c-0.198-1.549,0.917-3.024,2.476-3.286
								c1.565-0.262,2.99,0.785,3.19,2.334C33.053,42.539,31.947,44.016,30.386,44.279z M29.722,39.113
								c-1.308,0.221-2.241,1.453-2.074,2.754c0.169,1.301,1.371,2.182,2.68,1.961c1.307-0.221,2.238-1.46,2.069-2.761
								C32.231,39.765,31.029,38.892,29.722,39.113z"/>
						</g>
						<g>
							<path style="fill:#5C5D60;" d="M31.643,41.196c0.114,0.889-0.519,1.73-1.411,1.882c-0.893,0.15-1.709-0.452-1.824-1.34
								c-0.117-0.891,0.517-1.728,1.411-1.877C30.714,39.707,31.529,40.306,31.643,41.196z"/>
							<path style="fill:#231F20;" d="M30.262,43.307c-1.019,0.172-1.957-0.518-2.086-1.529c-0.13-1.016,0.595-1.978,1.61-2.15
								c1.021-0.169,1.957,0.513,2.09,1.529C32.005,42.166,31.281,43.135,30.262,43.307z M29.847,40.09
								c-0.766,0.128-1.314,0.852-1.214,1.612c0.096,0.761,0.8,1.274,1.566,1.149c0.767-0.13,1.312-0.854,1.215-1.615
								C31.314,40.472,30.615,39.957,29.847,40.09z"/>
						</g>
						<g>
							<path style="fill:#6A6B6E;" d="M31.192,41.275c0.083,0.641-0.373,1.247-1.019,1.357c-0.645,0.108-1.236-0.326-1.316-0.967
								c-0.084-0.643,0.374-1.249,1.02-1.36C30.519,40.195,31.11,40.634,31.192,41.275z"/>
							<path style="fill:#FFFFFF;" d="M29.929,40.735c0.407-0.071,0.776,0.204,0.828,0.611c0.052,0.403-0.236,0.788-0.642,0.854
								c-0.405,0.069-0.772-0.204-0.825-0.606C29.239,41.187,29.524,40.804,29.929,40.735z"/>
						</g>
					</g>
				</g>
			</g>
			<g>
				<g>
					<path style="fill:#A1A3A6;" d="M29.572,26.054c0.222,1.752-1.024,3.414-2.789,3.711c-1.762,0.295-3.376-0.891-3.598-2.646
						c-0.221-1.755,1.036-3.414,2.798-3.708C27.748,23.116,29.353,24.299,29.572,26.054z"/>
					<g>
						<g>
							<path style="fill:#7E6224;" d="M28.819,25.983c0.181,1.428-0.838,2.783-2.275,3.023c-1.441,0.243-2.752-0.719-2.933-2.15
								c-0.182-1.433,0.842-2.783,2.28-3.024C27.332,23.59,28.639,24.549,28.819,25.983z"/>
							<path style="fill:#5F2B2B;" d="M26.572,29.24c-1.562,0.262-2.995-0.793-3.19-2.346c-0.198-1.554,0.914-3.031,2.479-3.294
								c1.563-0.26,2.992,0.793,3.187,2.346C29.244,27.5,28.136,28.979,26.572,29.24z M25.92,24.056
								c-1.309,0.218-2.244,1.455-2.08,2.761c0.164,1.301,1.366,2.189,2.675,1.971c1.309-0.219,2.241-1.468,2.076-2.768
								C28.426,24.716,27.231,23.836,25.92,24.056z"/>
						</g>
						<g>
							<path style="fill:#5C5D60;" d="M27.836,26.147c0.112,0.891-0.521,1.74-1.416,1.892c-0.896,0.15-1.709-0.456-1.823-1.347
								c-0.112-0.891,0.521-1.74,1.419-1.89C26.91,24.653,27.725,25.257,27.836,26.147z"/>
							<path style="fill:#231F20;" d="M26.451,28.263c-1.019,0.172-1.96-0.521-2.085-1.532c-0.129-1.019,0.596-1.983,1.618-2.155
								c1.021-0.172,1.952,0.516,2.08,1.534C28.191,27.122,27.472,28.091,26.451,28.263z M26.044,25.038
								c-0.768,0.13-1.314,0.851-1.219,1.615c0.096,0.761,0.8,1.286,1.566,1.156c0.769-0.128,1.312-0.859,1.215-1.617
								C27.51,25.423,26.81,24.91,26.044,25.038z"/>
						</g>
						<g>
							<path style="fill:#6A6B6E;" d="M27.386,26.221c0.081,0.643-0.38,1.259-1.023,1.364c-0.648,0.108-1.238-0.329-1.317-0.969
								c-0.083-0.643,0.377-1.254,1.025-1.36C26.715,25.148,27.305,25.578,27.386,26.221z"/>
							<path style="fill:#FFFFFF;" d="M26.125,25.686c0.41-0.069,0.777,0.208,0.828,0.611c0.05,0.402-0.233,0.79-0.643,0.856
								c-0.404,0.069-0.775-0.206-0.823-0.609C25.435,26.138,25.72,25.754,26.125,25.686z"/>
						</g>
					</g>
				</g>
			</g>
			<g>
				<g>
					<path style="fill:#A1A3A6;" d="M49.135,53.963c0.228,1.743,1.824,2.899,3.56,2.567c1.73-0.326,2.949-2.015,2.721-3.757
						c-0.231-1.745-1.819-2.884-3.553-2.555C50.13,50.544,48.904,52.216,49.135,53.963z"/>
					<g>
						<g>
							<path style="fill:#7E6224;" d="M49.833,53.639c0.188,1.426,1.487,2.356,2.901,2.091c1.415-0.27,2.4-1.637,2.215-3.06
								c-0.191-1.426-1.481-2.358-2.894-2.093C50.639,50.846,49.644,52.216,49.833,53.639z"/>
							<path style="fill:#5F2B2B;" d="M49.606,53.681c-0.202-1.543,0.884-3.036,2.419-3.328c1.536-0.29,2.948,0.731,3.15,2.275
								c0.202,1.541-0.874,3.036-2.411,3.328C51.23,56.245,49.811,55.227,49.606,53.681z M50.056,53.595
								c0.169,1.296,1.365,2.157,2.649,1.914c1.286-0.243,2.19-1.505,2.021-2.798c-0.17-1.296-1.355-2.145-2.642-1.902
								C50.799,51.052,49.887,52.302,50.056,53.595z"/>
						</g>
						<g>
							<path style="fill:#5C5D60;" d="M50.801,53.458c0.114,0.886,0.924,1.47,1.805,1.303c0.879-0.167,1.495-1.018,1.378-1.902
								c-0.117-0.888-0.922-1.47-1.803-1.303C51.304,51.722,50.682,52.569,50.801,53.458z"/>
							<path style="fill:#231F20;" d="M50.571,53.502c-0.131-1.014,0.577-1.985,1.58-2.177c1.003-0.191,1.926,0.474,2.059,1.485
								c0.134,1.011-0.573,1.985-1.576,2.177C51.63,55.176,50.704,54.508,50.571,53.502z M51.026,53.418
								c0.099,0.756,0.795,1.259,1.55,1.117c0.752-0.145,1.285-0.879,1.185-1.637c-0.101-0.758-0.795-1.257-1.55-1.117
								C51.459,51.926,50.925,52.657,51.026,53.418z"/>
						</g>
						<g>
							<path style="fill:#6A6B6E;" d="M51.244,53.376c0.083,0.636,0.669,1.056,1.304,0.935c0.633-0.118,1.076-0.734,0.995-1.372
								c-0.086-0.638-0.666-1.063-1.299-0.94C51.609,52.118,51.158,52.738,51.244,53.376z"/>
							<path style="fill:#FFFFFF;" d="M52.297,52.429c-0.4,0.076-0.678,0.466-0.627,0.869c0.055,0.403,0.417,0.663,0.817,0.586
								c0.4-0.076,0.681-0.459,0.628-0.864C53.063,52.618,52.695,52.353,52.297,52.429z"/>
						</g>
					</g>
				</g>
			</g>
			<g>
				<g>
					<path style="fill:#A1A3A6;" d="M49.461,38.224c0.226,1.75,1.816,2.901,3.545,2.57c1.728-0.329,2.938-2.017,2.713-3.765
						c-0.226-1.75-1.799-2.896-3.528-2.57C50.461,34.786,49.236,36.472,49.461,38.224z"/>
					<g>
						<g>
							<path style="fill:#7E6224;" d="M50.155,37.896c0.185,1.428,1.477,2.366,2.89,2.098c1.409-0.27,2.399-1.637,2.214-3.065
								c-0.183-1.431-1.471-2.371-2.881-2.101C50.966,35.095,49.971,36.467,50.155,37.896z"/>
							<path style="fill:#5F2B2B;" d="M49.928,37.942c-0.2-1.549,0.891-3.05,2.421-3.34c1.534-0.292,2.935,0.734,3.135,2.28
								c0.2,1.549-0.881,3.053-2.411,3.342C51.54,40.514,50.125,39.491,49.928,37.942z M50.378,37.859
								c0.169,1.296,1.357,2.157,2.639,1.91c1.284-0.243,2.185-1.502,2.019-2.8c-0.168-1.301-1.347-2.152-2.63-1.907
								C51.123,35.304,50.211,36.558,50.378,37.859z"/>
						</g>
						<g>
							<path style="fill:#5C5D60;" d="M51.12,37.716c0.114,0.886,0.919,1.475,1.798,1.308c0.879-0.169,1.492-1.026,1.378-1.914
								c-0.114-0.891-0.914-1.472-1.79-1.306C51.625,35.974,51.006,36.825,51.12,37.716z"/>
							<path style="fill:#231F20;" d="M50.892,37.758c-0.129-1.014,0.58-1.993,1.58-2.182c1-0.189,1.919,0.479,2.049,1.492
								c0.131,1.009-0.576,1.988-1.573,2.177C51.946,39.437,51.023,38.769,50.892,37.758z M51.345,37.672
								c0.1,0.761,0.79,1.262,1.543,1.122c0.752-0.142,1.282-0.881,1.185-1.639c-0.101-0.763-0.788-1.259-1.537-1.117
								C51.781,36.178,51.247,36.909,51.345,37.672z"/>
						</g>
						<g>
							<path style="fill:#6A6B6E;" d="M51.563,37.633c0.084,0.641,0.664,1.06,1.297,0.942c0.633-0.123,1.079-0.741,0.995-1.379
								c-0.083-0.643-0.659-1.063-1.295-0.942C51.928,36.374,51.482,36.992,51.563,37.633z"/>
							<path style="fill:#FFFFFF;" d="M52.615,36.683c-0.399,0.076-0.675,0.469-0.623,0.871c0.05,0.403,0.415,0.663,0.812,0.587
								c0.398-0.076,0.679-0.461,0.626-0.861C53.377,36.874,53.013,36.607,52.615,36.683z"/>
						</g>
					</g>
				</g>
			</g>
			<g>
				<g>
					<path style="fill:#A1A3A6;" d="M49.33,22.532c0.22,1.754,1.803,2.911,3.528,2.579c1.726-0.329,2.94-2.02,2.719-3.775
						c-0.22-1.757-1.79-2.903-3.517-2.579C50.335,19.087,49.107,20.775,49.33,22.532z"/>
					<g>
						<g>
							<path style="fill:#7E6224;" d="M50.026,22.203c0.178,1.431,1.466,2.376,2.875,2.108c1.41-0.267,2.398-1.652,2.219-3.08
								c-0.18-1.436-1.462-2.368-2.868-2.101C50.842,19.398,49.844,20.77,50.026,22.203z"/>
							<path style="fill:#5F2B2B;" d="M49.798,22.247c-0.194-1.553,0.889-3.053,2.421-3.343c1.53-0.292,2.928,0.734,3.123,2.287
								c0.195,1.554-0.884,3.053-2.414,3.348C51.399,24.83,49.993,23.801,49.798,22.247z M50.247,22.164
								c0.165,1.298,1.345,2.165,2.626,1.919c1.281-0.246,2.188-1.514,2.024-2.812c-0.162-1.306-1.337-2.153-2.619-1.91
								C50.997,19.607,50.082,20.858,50.247,22.164z"/>
						</g>
						<g>
							<path style="fill:#5C5D60;" d="M50.988,22.022c0.109,0.888,0.913,1.48,1.789,1.313c0.876-0.167,1.491-1.026,1.379-1.914
								c-0.113-0.896-0.907-1.482-1.783-1.315C51.497,20.272,50.873,21.128,50.988,22.022z"/>
							<path style="fill:#231F20;" d="M50.758,22.063c-0.126-1.016,0.586-1.998,1.585-2.189c0.998-0.186,1.909,0.483,2.038,1.5
								c0.126,1.016-0.577,1.998-1.573,2.189C51.809,23.754,50.887,23.077,50.758,22.063z M51.211,21.978
								c0.094,0.761,0.788,1.274,1.537,1.131c0.752-0.145,1.281-0.886,1.186-1.649c-0.095-0.765-0.783-1.264-1.533-1.121
								C51.649,20.481,51.115,21.214,51.211,21.978z"/>
						</g>
						<g>
							<path style="fill:#6A6B6E;" d="M51.43,21.941c0.081,0.64,0.658,1.065,1.291,0.945c0.631-0.12,1.079-0.741,1-1.384
								c-0.083-0.646-0.662-1.065-1.293-0.945C51.794,20.677,51.349,21.295,51.43,21.941z"/>
							<path style="fill:#FFFFFF;" d="M52.483,20.986c-0.398,0.076-0.681,0.466-0.628,0.869c0.051,0.402,0.416,0.677,0.813,0.601
								c0.395-0.076,0.676-0.466,0.623-0.869C53.242,21.18,52.878,20.91,52.483,20.986z"/>
						</g>
					</g>
				</g>
			</g>
			<g>
				<g>
					<g>
						<path style="fill:#723015;" d="M55.56,348.328c-0.185,0.039-0.283,0.049-0.469,0.083c0.583,4.368,0.871,6.56,1.448,10.928
							c19.404-3.728,38.626-8.477,57.367-14.764c-0.587-4.334-0.881-6.496-1.476-10.821
							C90.103,341.263,78.755,343.783,55.56,348.328z"/>
						<path style="fill:#60270B;" d="M114.268,344.787c-18.945,6.373-38.385,11.181-58.01,14.931
							c-0.61-4.621-0.919-6.936-1.534-11.555c19.606-3.738,39.033-8.511,57.976-14.823
							C113.329,337.913,113.644,340.205,114.268,344.787z M56.831,358.96c23.132-4.54,34.442-7.048,56.718-14.588
							c-0.552-4.084-0.831-6.123-1.39-10.197c-22.261,7.463-33.576,9.962-56.696,14.49C56.01,352.78,56.286,354.842,56.831,358.96z"
							/>
					</g>
					<g>
						<path style="fill:#8D3F22;" d="M102.312,336.988c-14.964,4.525-22.534,6.315-37.884,9.539
							c0.58,4.363,0.871,6.545,1.452,10.916c15.355-3.24,22.925-5.039,37.899-9.608
							C103.193,343.489,102.903,341.322,102.312,336.988z"/>
						<path style="fill:#60270B;" d="M104.141,348.058c-15.223,4.658-22.924,6.484-38.544,9.77c-0.611-4.621-0.92-6.933-1.54-11.549
							c15.615-3.271,23.311-5.088,38.527-9.704C103.209,341.165,103.521,343.459,104.141,348.058z M66.161,357.058
							c15.093-3.193,22.539-4.96,37.261-9.436c-0.55-4.096-0.828-6.14-1.385-10.231c-14.716,4.437-22.159,6.199-37.246,9.382
							C65.343,350.886,65.616,352.94,66.161,357.058z"/>
					</g>
					<path style="fill:#330600;" d="M102.507,338.139c0,0,4.352-2.511,9.923-4.383c-22.327,7.507-33.675,10.028-56.87,14.573
						c1.694-0.322,7.537-1.404,9.158-0.658C80.031,344.448,87.576,342.659,102.507,338.139z"/>
					<path style="fill:#330600;" d="M65.956,356.226c0,0-3.161,1.887-8.951,3.026c23.206-4.56,34.556-7.085,56.9-14.676
						c-1.629,0.55-8.557,2.668-10.142,2.057C88.829,351.19,81.272,352.989,65.956,356.226z"/>
				</g>
				<g>
					
						<linearGradient id="SVGID_00000175309748294705250390000001675446501835893413_" gradientUnits="userSpaceOnUse" x1="65.3963" y1="344.1342" x2="103.586" y2="344.1342">
						<stop  offset="0.0071" style="stop-color:#4D1902"/>
						<stop  offset="1" style="stop-color:#4D1B00"/>
					</linearGradient>
					<path style="fill:url(#SVGID_00000175309748294705250390000001675446501835893413_);" d="M103.586,339.896
						c-15.022,4.597-22.618,6.413-38.027,9.677c-0.064-0.486-0.097-0.727-0.162-1.212c15.41-3.259,23.005-5.076,38.025-9.665
						C103.488,339.177,103.521,339.417,103.586,339.896z"/>
					
						<linearGradient id="SVGID_00000117677959918691946340000014024468821136125335_" gradientUnits="userSpaceOnUse" x1="65.3707" y1="343.9317" x2="103.5591" y2="343.9317">
						<stop  offset="0" style="stop-color:#FDD777"/>
						<stop  offset="0.0278" style="stop-color:#FDD87A"/>
						<stop  offset="0.3296" style="stop-color:#FBDF99"/>
						<stop  offset="0.4982" style="stop-color:#FAE2A5"/>
						<stop  offset="0.658" style="stop-color:#FAE1A1"/>
						<stop  offset="0.8003" style="stop-color:#FBDF97"/>
						<stop  offset="0.9357" style="stop-color:#FCDB84"/>
						<stop  offset="1" style="stop-color:#FDD879"/>
					</linearGradient>
					<path style="fill:url(#SVGID_00000117677959918691946340000014024468821136125335_);" d="M103.559,339.697
						c-15.023,4.597-22.619,6.413-38.029,9.674c-0.064-0.483-0.096-0.729-0.16-1.215c15.407-3.259,23.001-5.075,38.02-9.665
						C103.457,338.975,103.493,339.216,103.559,339.697z"/>
					
						<linearGradient id="SVGID_00000134221736985501399850000014570206859525924287_" gradientUnits="userSpaceOnUse" x1="65.6609" y1="343.366" x2="103.4078" y2="343.366">
						<stop  offset="0" style="stop-color:#FDE998"/>
						<stop  offset="0.1221" style="stop-color:#FCF0AA"/>
						<stop  offset="0.3634" style="stop-color:#FBFBC9"/>
						<stop  offset="0.4982" style="stop-color:#FAFFD5"/>
						<stop  offset="0.6392" style="stop-color:#FAFED1"/>
						<stop  offset="0.7648" style="stop-color:#FBFAC7"/>
						<stop  offset="0.8841" style="stop-color:#FCF3B4"/>
						<stop  offset="0.9997" style="stop-color:#FDE99B"/>
						<stop  offset="1" style="stop-color:#FDE99B"/>
					</linearGradient>
					<path style="fill:url(#SVGID_00000134221736985501399850000014570206859525924287_);" d="M65.371,348.157
						c0.39,0.035,0.585,0.052,0.976,0.083c14.641-3.124,21.863-4.857,36.159-9.184c0.354-0.226,0.531-0.339,0.886-0.564
						C88.371,343.081,80.778,344.897,65.371,348.157z"/>
				</g>
			</g>
		</g>
	</g>
</g>
</svg>
